PathFileType	4	(X/Y/Z)	C:\Users\Basilio\Documents\Thesis Gigler\squatting_fais\c3dfiles\040\SLS_pre_front5\markers_experimental.trc
DataRate	CameraRate	NumFrames	NumMarkers	Units	OrigDataRate	OrigDataStartFrame	OrigNumFrames
200.000000	200.000000	4	62	mm	200.000000	327	1309
Frame#	Time	FHD			LBHD			RBHD			C7			T10			CLAV			LSHO			LUUPA			LMUPA			LDUPA			LLEP			LMEP			LRAD			LUL			LRFIN			RSHO			RUPA1			RMUPA			RDUPA			RLEP			RMEP			RRAD			RUL			RUFIN			LASI			RASI			USACR			LSACR			RSACR			LTHI1			LTHI2			LTHI3			LTHI4			LLFC			LMFC			LTIB1			LTIB2			LTIB3			LTIB4			LLMAL			LMMAL			LHEE			LMT1			LMT2			LMT5			RTHI			RTHI2			RTHI3			RTHI4			RLFC			RMFC			RTIB1			RTIB2			RTIB3			RTIB4			RLMAL			RMMAL			RHEE			RMT1			RMT2			RMT5			*61			
		X1	Y1	Z1	X2	Y2	Z2	X3	Y3	Z3	X4	Y4	Z4	X5	Y5	Z5	X6	Y6	Z6	X7	Y7	Z7	X8	Y8	Z8	X9	Y9	Z9	X10	Y10	Z10	X11	Y11	Z11	X12	Y12	Z12	X13	Y13	Z13	X14	Y14	Z14	X15	Y15	Z15	X16	Y16	Z16	X17	Y17	Z17	X18	Y18	Z18	X19	Y19	Z19	X20	Y20	Z20	X21	Y21	Z21	X22	Y22	Z22	X23	Y23	Z23	X24	Y24	Z24	X25	Y25	Z25	X26	Y26	Z26	X27	Y27	Z27	X28	Y28	Z28	X29	Y29	Z29	X30	Y30	Z30	X31	Y31	Z31	X32	Y32	Z32	X33	Y33	Z33	X34	Y34	Z34	X35	Y35	Z35	X36	Y36	Z36	X37	Y37	Z37	X38	Y38	Z38	X39	Y39	Z39	X40	Y40	Z40	X41	Y41	Z41	X42	Y42	Z42	X43	Y43	Z43	X44	Y44	Z44	X45	Y45	Z45	X46	Y46	Z46	X47	Y47	Z47	X48	Y48	Z48	X49	Y49	Z49	X50	Y50	Z50	X51	Y51	Z51	X52	Y52	Z52	X53	Y53	Z53	X54	Y54	Z54	X55	Y55	Z55	X56	Y56	Z56	X57	Y57	Z57	X58	Y58	Z58	X59	Y59	Z59	X60	Y60	Z60	X61	Y61	Z61	X62	Y62	Z62	

328	1.635	-236.6129302978516	1751.482055664063	-1141.838745117188	-362.3532714843751	1707.947021484375	-1186.083984375	-420.6707458496095	1673.750610351563	-1055.61962890625	-434.3963928222657	1543.542602539063	-1098.944702148438	-452.5994262695314	1224.88818359375	-1081.641357421875	-302.0447998046876	1483.17919921875	-1102.887939453125	-366.8924255371094	1538.791381835938	-1245.530029296875	-211.2118072509766	1465.609008789063	-1321.108276367188	-178.4886779785157	1481.363891601563	-1287.2783203125	-143.9254913330078	1447.6953125	-1323.710693359375	-88.66794586181642	1414.932861328125	-1320.884521484375	-104.4818878173828	1361.423583984375	-1283.384643554688	nan	nan	nan	183.7185211181641	1425.1123046875	-1241.604125976563	243.1541595458985	1444.6455078125	-1143.452026367188	-343.5297546386719	1525.345581054688	-958.2751464843752	-191.6127166748047	1437.091552734375	-888.1817016601565	-160.4625244140625	1460.718872070313	-917.181823730469	-124.6084518432617	1417.482177734375	-893.8624267578127	-64.66365814208986	1404.521362304688	-906.7598266601565	-81.81931304931642	1349.411743164063	-956.7772216796877	187.408676147461	1438.03125	-1057.882080078125	203.2369537353516	1415.712158203125	-985.4522094726565	284.0325622558594	1444.0302734375	-1061.69775390625	-258.2660827636719	1061.292114257813	-1182.45556640625	-264.5655517578126	1069.698852539063	-953.726989746094	-449.8844299316407	1083.744750976563	-1066.4306640625	-453.2756652832032	1053.4130859375	-1093.821166992188	-453.8522949218751	1053.541625976563	-1037.082397460938	-328.4110107421876	788.834411621094	-1223.999877929688	-274.9732666015626	722.7409667968751	-1224.720825195313	-231.1794586181641	735.7645263671876	-1230.95947265625	-285.1018676757813	666.6643676757814	-1208.144409179688	-242.6846923828126	541.3995971679689	-1189.591796875	-238.380355834961	534.5252075195314	-1059.320678710938	-231.8396759033204	318.2247619628907	-1127.029174804688	-307.6835021972657	289.6290893554688	-1160.579711914063	-268.2906188964844	276.8584899902344	-1147.88330078125	-271.4798583984376	200.8645019531251	-1102.935546875	-353.9629516601563	126.2857818603516	-1105.269653320313	-315.1676330566407	140.8251953125	-1027.27734375	-412.814666748047	96.73970031738284	-1049.194702148438	-199.7272644042969	56.73856735229494	-1050.416748046875	-204.4549407958985	51.4585304260254	-1096.900146484375	-261.4186096191407	37.5334815979004	-1138.459106445313	-229.9302520751954	815.415222167969	-875.5142822265627	-177.0443725585938	775.8715820312502	-881.837585449219	-148.5794830322266	788.7708740234377	-892.613708496094	-176.1129302978516	692.8856811523439	-890.3518066406252	-115.5183486938477	570.8638916015626	-898.2515258789065	-119.3304519653321	558.6511840820314	-1032.938598632813	8.100636482238771	423.0202941894532	-923.6142578125002	-21.15310096740723	323.6853332519532	-893.3880004882815	20.05427932739258	338.3573913574219	-907.3592529296877	54.15749740600587	304.3112487792969	-940.028259277344	64.29039001464845	176.6169738769532	-913.9532470703127	65.03797912597658	197.4391021728516	-1001.113403320313	24.11890411376954	105.8383255004883	-963.7598266601565	220.5682525634766	203.2695922851563	-998.9312133789065	219.8475341796876	204.6449127197266	-958.9353027343752	203.3010711669922	161.2438354492188	-905.0858154296877	nan	nan	nan	
329	1.64	-236.6697082519532	1751.072021484375	-1141.889770507813	-362.6507263183594	1707.627563476563	-1186.09326171875	-420.374969482422	1672.938598632813	-1055.557250976563	-434.4139099121095	1543.052124023438	-1098.956665039063	-452.7686157226564	1224.48388671875	-1081.635620117188	-301.8756103515626	1482.694702148438	-1102.811889648438	-366.7233276367188	1538.497192382813	-1245.380859375	-210.9810028076172	1465.5654296875	-1321.020874023438	-178.1537628173828	1481.25244140625	-1287.077880859375	-143.6734313964844	1447.6201171875	-1323.596923828125	-88.48784637451173	1414.813110351563	-1320.76904296875	-104.1881637573242	1361.142944335938	-1283.287231445313	nan	nan	nan	183.9246368408203	1424.85791015625	-1241.626953125	242.8267364501954	1443.943603515625	-1143.792846679688	-343.2286376953126	1525.023071289063	-958.3234863281252	-191.1778869628907	1436.989013671875	-888.3538818359377	-159.9508361816407	1460.485473632813	-917.3235473632815	-124.5122833251953	1417.013671875	-893.7768554687502	-64.41922760009767	1403.725952148438	-906.7694091796877	-81.51153564453126	1348.572998046875	-957.2935180664065	187.8394775390625	1437.62353515625	-1057.968017578125	203.3943634033204	1415.41552734375	-985.4125976562502	284.7077331542969	1443.610229492188	-1062.01611328125	-258.5859069824219	1060.753784179688	-1182.55126953125	-264.8089294433594	1069.097900390625	-953.789733886719	-450.2080078125001	1083.232055664063	-1066.419677734375	-453.654266357422	1052.827880859375	-1093.750122070313	-454.2999572753907	1053.090576171875	-1037.036865234375	-328.2547912597657	788.320983886719	-1224.17822265625	-274.7070312500001	722.3192749023439	-1224.985107421875	-230.927230834961	735.4574584960939	-1231.248779296875	-284.6791992187501	666.2039184570314	-1208.510986328125	-242.4842529296876	541.3488769531251	-1190.189331054688	-237.5314025878907	534.4425659179689	-1059.754516601563	-231.3152465820313	317.8631591796876	-1127.17919921875	-307.2914123535157	289.4835205078126	-1160.849487304688	-267.9060974121094	276.5921936035157	-1147.9697265625	-270.9368896484376	200.7075195312501	-1103.372436523438	-353.9487915039063	126.3154296875	-1105.360229492188	-315.1330261230469	140.8323364257813	-1027.424560546875	-412.8123779296876	96.75266265869143	-1049.241088867188	-199.7773590087891	56.71580886840822	-1050.404541015625	-204.4720153808594	51.38733291625978	-1096.890258789063	-261.0490112304688	37.24791717529298	-1138.41748046875	-229.9477539062501	814.8125000000002	-875.556823730469	-176.9391326904297	775.0090332031252	-881.098083496094	-148.3730010986328	788.4141845703127	-892.8394775390627	-176.0082397460938	692.4499511718751	-890.4432373046877	-115.1306228637696	570.5965576171876	-898.438415527344	-119.169189453125	558.2850952148439	-1033.09228515625	8.512520790100099	422.880584716797	-923.747009277344	-20.62422180175782	323.3338012695313	-893.3890380859377	20.69226837158203	338.4340209960938	-907.6087646484377	54.78416061401369	304.0790710449219	-940.196960449219	64.60743713378908	176.2332305908203	-914.4664306640627	65.81625366210939	197.3036346435547	-1001.321716308594	24.50347137451173	105.8371200561524	-963.7052001953127	221.8158416748047	203.6633911132813	-999.3479003906252	220.6554412841797	204.7141113281251	-959.5065917968752	203.9587554931641	161.6849822998047	-905.1049804687502	nan	nan	nan	
330	1.645	-236.8575592041016	1750.640625	-1141.934692382813	-361.9946289062501	1706.782104492188	-1186.037841796875	-420.3153076171876	1672.393920898438	-1055.520141601563	-434.1839599609376	1542.5478515625	-1098.88623046875	-452.8603515625001	1224.157958984375	-1081.597290039063	-301.7027587890626	1482.2802734375	-1102.702026367188	-366.5781860351563	1538.121826171875	-1245.320190429688	-210.6737518310547	1465.40185546875	-1320.869873046875	-177.934555053711	1481.089233398438	-1286.87841796875	-143.3964080810547	1447.444458007813	-1323.462768554688	-88.29386138916017	1414.638671875	-1320.744262695313	-104.1730880737305	1361.35791015625	-1283.238891601563	nan	nan	nan	184.1637878417969	1424.692138671875	-1241.724487304688	243.2047424316407	1443.407836914063	-1143.881225585938	-343.0697021484376	1524.4814453125	-958.318786621094	-190.925033569336	1436.679565429688	-888.5020141601565	-159.7210845947266	1460.03515625	-917.425720214844	-124.1602249145508	1416.70166015625	-893.7574462890627	-63.98403167724611	1403.57177734375	-906.9559326171877	-81.26265716552736	1348.436767578125	-957.2832641601565	188.3921203613282	1437.302734375	-1058.153442382813	203.6017456054688	1415.156005859375	-985.3363037109377	284.8612365722657	1443.18310546875	-1062.058349609375	-258.9210510253907	1060.228393554688	-1182.594116210938	-264.9359436035157	1068.772094726563	-953.9628906250002	-450.5942687988282	1082.7724609375	-1066.328125	-453.8987731933595	1052.187377929688	-1093.694946289063	-454.6471557617189	1052.548583984375	-1037.008056640625	-328.1592712402344	787.7317504882815	-1224.3740234375	-274.3317565917969	721.8292236328126	-1225.29345703125	-230.5614471435547	735.0761718750001	-1231.543090820313	-284.2817993164063	665.8945312500001	-1208.709106445313	-241.6284179687501	541.0065917968751	-1190.556396484375	-236.1965332031251	534.1838989257814	-1060.238403320313	-231.0466308593751	317.7191467285157	-1127.228759765625	-306.8783569335938	289.3987731933594	-1161.016479492188	-267.4038696289063	276.2373962402344	-1148.154174804688	-270.8615112304688	200.6342010498047	-1103.338623046875	-354.0941162109376	126.3703765869141	-1105.471313476563	-315.0395812988282	140.8160400390625	-1027.454711914063	-412.7993164062501	96.73060607910159	-1049.247192382813	-199.7606048583985	56.73347854614259	-1050.48681640625	-204.4985809326172	51.31038665771486	-1096.94873046875	-261.4175415039063	37.48988342285157	-1138.463256835938	-229.7496185302735	814.4019775390627	-875.6373291015627	-176.8391723632813	774.872009277344	-881.7798461914065	-149.0374603271485	787.466979980469	-893.765075683594	-175.9517059326172	692.3150634765626	-890.4510498046877	-114.9528121948242	570.0789184570314	-898.5596313476565	-119.0988235473633	557.8752441406251	-1033.14306640625	8.992048263549806	422.5217285156251	-923.9856567382815	-20.21097946166993	323.0682983398438	-893.2905273437502	21.6339111328125	338.6333618164063	-907.1285400390627	55.27893829345705	304.2244262695313	-940.3776855468752	65.03187561035158	176.0731964111328	-914.588806152344	66.12781524658205	197.5576934814454	-1001.482055664063	25.3493824005127	105.5902099609375	-963.9119262695315	222.098373413086	203.4529876708985	-999.4180297851565	220.9664459228516	204.8358764648438	-959.6616210937502	204.7804565429688	161.4437561035157	-905.1440429687502	nan	nan	nan	
331	1.65	-236.8562927246094	1750.24365234375	-1141.984619140625	-362.1652832031251	1706.273681640625	-1186.044677734375	-420.3131408691407	1671.652099609375	-1055.49853515625	-433.8803100585939	1542.031860351563	-1098.829223632813	-453.1304931640626	1223.80078125	-1081.5400390625	-301.6103820800782	1481.782470703125	-1102.685668945313	-365.8306274414063	1537.541259765625	-1245.15771484375	-210.3236694335938	1465.272705078125	-1320.7412109375	-177.7320098876953	1480.826904296875	-1286.632080078125	-143.1142120361328	1447.324462890625	-1323.335083007813	-88.05120849609376	1414.453857421875	-1320.67138671875	-103.9959945678711	1361.192138671875	-1283.303100585938	nan	nan	nan	184.3762664794922	1424.40771484375	-1241.760375976563	243.7572326660157	1442.833374023438	-1144.052612304688	-342.8538208007813	1523.858154296875	-958.2327880859377	-190.5741577148438	1435.886108398438	-888.377624511719	-159.348388671875	1459.765625	-917.5488281250002	-123.8673248291016	1416.177734375	-893.8756103515627	-63.55782699584962	1402.292236328125	-906.6775512695315	-80.8755569458008	1348.07080078125	-957.528259277344	188.7616119384766	1436.828857421875	-1058.208618164063	204.0876007080079	1414.811279296875	-985.3581542968752	285.5935058593751	1442.307983398438	-1061.928955078125	-259.2193603515626	1059.557373046875	-1182.574951171875	-265.2442932128907	1068.25146484375	-953.9084472656252	-450.9155273437501	1082.234985351563	-1066.293334960938	-454.0935668945314	1051.673217773438	-1093.615112304688	-454.8948059082032	1051.911254882813	-1036.882080078125	-328.0581665039063	787.0291137695315	-1224.587890625	-274.0965881347657	721.2744140625001	-1225.709106445313	-230.3050842285157	734.7261352539064	-1231.875244140625	-283.7416076660157	665.3803710937501	-1208.85205078125	-240.8305206298829	540.6965332031251	-1190.833984375	-234.9218902587891	533.6115722656251	-1060.672729492188	-229.9985351562501	317.3313903808594	-1127.6728515625	-306.7441101074219	289.3790283203126	-1161.124145507813	-267.2103271484376	275.1218261718751	-1148.729248046875	-270.7421875000001	200.5699310302735	-1103.441284179688	-353.9282531738282	126.3678283691407	-1105.491455078125	-314.9584045410157	140.8749084472657	-1027.584228515625	-412.8077087402345	96.73880004882815	-1049.294921875	-199.7539062500001	56.66671371459962	-1050.485107421875	-204.3872222900391	51.44078445434572	-1097.014404296875	-260.9898986816407	37.19889068603516	-1138.405639648438	-229.7665557861329	813.969665527344	-875.6604003906252	-176.7902526855469	774.5996704101565	-881.854675292969	-148.4514312744141	787.8774414062502	-893.2104492187502	-175.6948394775391	691.9773559570314	-890.5114746093752	-114.8091812133789	569.6624755859376	-898.6346435546877	-119.1273574829102	557.7290039062501	-1033.246704101563	9.391122817993166	422.596649169922	-924.0532836914065	-19.6416072845459	323.1363525390626	-893.4551391601565	22.17264747619629	338.5025939941407	-907.1466064453127	55.84777832031251	304.0085754394532	-940.6481933593752	65.48391723632814	176.1720123291016	-914.6763305664065	66.89359283447267	197.386947631836	-1001.6298828125	26.22343826293946	105.5135498046875	-964.0231933593752	222.6920928955079	203.5083312988282	-999.6362304687502	221.7403106689454	204.9049987792969	-959.934265136719	205.6718902587891	161.5806274414063	-905.4382934570315	nan	nan	nan	
